# xmcd
#
# Track frame offsets:
#	150
#	15943
#	32876
#	54759
#	83441
#	98644
#	120317
#	154054
#	169300
#	193601
#	213622
#	234247
#
# Disc length: 3239 seconds
#
# Revision: 1
# Processed by: cddbd v1.5.2PL0 Copyright (c) Steve Scherf et al.
# Submitted via: audiograbber 1.83.01
#
DISCID=840ca50c
DTITLE=Poco - All Fired Up
DYEAR=1900
DGENRE=Country
TTITLE0=All Fired Up
TTITLE1=Drink It In
TTITLE2=Thats´s What Rock And Roll Will Do
TTITLE3=Regret
TTITLE4=When She´s Mine
TTITLE5=A Little Rain
TTITLE6=Hard Country
TTITLE7=Love Has No Reason
TTITLE8=Rockin´ Horse
TTITLE9=Neil Young
TTITLE10=Long Shot
TTITLE11=Pucky Huddle Stomp
EXTD=
EXTT0=
EXTT1=
EXTT2=
EXTT3=
EXTT4=
EXTT5=
EXTT6=
EXTT7=
EXTT8=
EXTT9=
EXTT10=
EXTT11=
PLAYORDER=
